<svg width="400" height="400" viewBox="0 0 400 400" fill="none" xmlns="http://www.w3.org/2000/svg">
<g clip-path="url(#clip0)">
<rect x="-4" y="-1" width="404" height="401" fill="#64DFFA"/>
<path d="M0 200V0H200H400V200V400H200H0V200ZM282.812 355.482C302.336 350.879 318.324 336.508 325.144 317.432C327.812 309.97 328.745 294.509 327.056 285.765C324.934 274.781 319.731 265.511 310.606 256.457C295.136 241.108 276.065 235.74 255.596 240.975C244.544 243.802 236.607 248.334 228.459 256.47C205 279.894 205 316.106 228.459 339.53C243.128 354.177 263.271 360.089 282.812 355.482V355.482ZM257.272 350.563C238.159 345.932 221.624 329.464 217.044 310.5C215.462 303.952 215.604 290.795 217.324 284.5C220.987 271.092 232.061 256.893 243.675 250.711C249.968 247.361 262.641 244 268.976 244C295.617 244 319.118 264.059 323.162 290.25C328.844 327.047 293.55 359.354 257.272 350.563V350.563ZM273.365 302.927C276.555 300.419 276.787 296.787 273.939 293.939C271.211 291.211 267.248 291.76 264.675 295.221C262.97 297.515 262.835 298.343 263.818 300.5C264.8 302.655 267.683 304.686 270.115 304.937C270.453 304.972 271.916 304.067 273.365 302.927V302.927ZM291.005 277.404C301.699 263.382 302.069 262.734 300.413 260.904C299.466 259.857 298.197 259.017 297.595 259.038C296.641 259.071 276.089 285.78 275.146 288.213C274.8 289.103 277.815 291.905 279.187 291.968C279.565 291.986 284.883 285.432 291.005 277.404V277.404ZM271.5 276V263.5H268.5H265.5L265.215 274.939C265.059 281.23 265.169 286.998 265.46 287.756C265.779 288.586 267.083 289.008 268.744 288.817L271.5 288.5V276ZM145.957 351.367C166.897 345.445 183.041 328.2 187.503 306.984C189.523 297.382 189.386 289.83 187.025 280.596C184.149 269.352 179.692 261.633 171.034 252.905C159.367 241.143 146.701 236 129.395 236C80.6388 236 53.275 294.197 84.3575 331.786C99.5933 350.211 123.346 357.761 145.957 351.367V351.367ZM122.402 348.003C102.656 345.108 85.4818 331.081 78.885 312.461C76.0174 304.367 75.3197 290.204 77.3903 282.122C83.5917 257.915 104.91 241 129.216 241C144.461 241 155.854 245.437 166.982 255.709C174.452 262.604 179.906 271.704 182.472 281.552C184.206 288.212 184.477 295.587 183.02 296.487C182.397 296.873 182.453 297.752 183.174 298.907C184.022 300.264 184.008 301.955 183.12 305.611C181.175 313.624 177.894 321 176.277 321C175.445 321 175.012 321.59 175.298 322.335C176.036 324.257 169.434 332.18 162.836 337.292C155.703 342.818 148.641 345.872 139.033 347.586C130.74 349.066 129.809 349.089 122.402 348.003V348.003ZM104.5 339C104.16 338.45 103.459 338 102.941 338C102.423 338 102 338.45 102 339C102 339.55 102.702 340 103.559 340C104.416 340 104.84 339.55 104.5 339ZM107.447 335.915C107.125 335.394 106.436 335.231 105.915 335.553C105.394 335.875 105.231 336.564 105.553 337.085C105.875 337.606 106.564 337.769 107.085 337.447C107.606 337.125 107.769 336.436 107.447 335.915ZM111 333.441C111 332.584 110.55 332.16 110 332.5C109.45 332.84 109 333.541 109 334.059C109 334.577 109.45 335 110 335C110.55 335 111 334.298 111 333.441ZM167.457 332.069C167.774 331.557 167.575 330.856 167.016 330.51C166.457 330.165 166 330.583 166 331.441C166 333.198 166.6 333.456 167.457 332.069V332.069ZM93.5 331C93.1601 330.45 92.4585 330 91.941 330C91.4234 330 91 330.45 91 331C91 331.55 91.7016 332 92.559 332C93.4165 332 93.8399 331.55 93.5 331ZM115 331C115 330.45 114.325 330 113.5 330C112.675 330 112 330.45 112 331C112 331.55 112.675 332 113.5 332C114.325 332 115 331.55 115 331ZM97.4472 328.915C97.1252 328.394 96.4356 328.231 95.9146 328.553C95.3936 328.875 95.2308 329.564 95.5528 330.085C95.8748 330.606 96.5644 330.769 97.0854 330.447C97.6064 330.125 97.7692 329.436 97.4472 328.915ZM163.5 330C163.84 329.45 163.668 329 163.118 329C162.568 329 161.84 329.45 161.5 330C161.16 330.55 161.332 331 161.882 331C162.432 331 163.16 330.55 163.5 330ZM159 328.441C159 327.584 158.543 327.165 157.984 327.51C157.425 327.856 157.226 328.557 157.543 329.069C158.4 330.456 159 330.198 159 328.441V328.441ZM102 328C102 327.45 101.298 327 100.441 327C99.5835 327 99.1601 327.45 99.5 328C99.8399 328.55 100.541 329 101.059 329C101.577 329 102 328.55 102 328ZM118 328C118 327.45 117.55 327 117 327C116.45 327 116 327.45 116 328C116 328.55 116.45 329 117 329C117.55 329 118 328.55 118 328ZM106 325.941C106 325.423 105.55 325 105 325C104.45 325 104 325.702 104 326.559C104 327.416 104.45 327.84 105 327.5C105.55 327.16 106 326.459 106 325.941ZM155 327C155 326.45 154.55 326 154 326C153.45 326 153 326.45 153 327C153 327.55 153.45 328 154 328C154.55 328 155 327.55 155 327ZM121.447 324.915C121.125 324.394 120.436 324.231 119.915 324.553C119.394 324.875 119.231 325.564 119.553 326.085C119.875 326.606 120.564 326.769 121.085 326.447C121.606 326.125 121.769 325.436 121.447 324.915ZM135.996 326.002C137.022 325.453 138.817 323.661 139.985 322.02L142.11 319.037L140.138 314.579C138.445 310.751 137.639 310.023 134.432 309.421C129.036 308.409 125.816 309.911 123.5 314.52C122.4 316.709 121.162 318.65 120.75 318.833C119.413 319.428 119.957 321 121.5 321C122.325 321 123 321.571 123 322.268C123 325.621 131.919 328.184 135.996 326.002V326.002ZM129 322.706C125.369 320.869 125.449 315.167 129.135 313.098C131.498 311.771 132.039 311.795 134.385 313.333C137.764 315.546 137.965 320.211 134.777 322.443C132.12 324.305 132.157 324.303 129 322.706V322.706ZM150.604 324.271C149.588 323.254 148.749 324.785 149.583 326.134C150.213 327.154 150.449 327.154 150.787 326.138C151.019 325.443 150.936 324.603 150.604 324.271V324.271ZM110 325C110 324.45 109.55 324 109 324C108.45 324 108 324.45 108 325C108 325.55 108.45 326 109 326C109.55 326 110 325.55 110 325ZM114 322.941C114 322.423 113.55 322 113 322C112.45 322 112 322.702 112 323.559C112 324.416 112.45 324.84 113 324.5C113.55 324.16 114 323.459 114 322.941ZM147 324C147 323.45 146.55 323 146 323C145.45 323 145 323.45 145 324C145 324.55 145.45 325 146 325C146.55 325 147 324.55 147 324ZM118 321.441C118 320.584 117.55 320.16 117 320.5C116.45 320.84 116 321.541 116 322.059C116 322.577 116.45 323 117 323C117.55 323 118 322.298 118 321.441ZM143 322C143 321.45 142.55 321 142 321C141.45 321 141 321.45 141 322C141 322.55 141.45 323 142 323C142.55 323 143 322.55 143 322ZM164 320.5C164 319.675 163.55 319 163 319C162.45 319 162 319.675 162 320.5C162 321.325 162.45 322 163 322C163.55 322 164 321.325 164 320.5ZM168.5 321C168.84 320.45 168.417 320 167.559 320C166.702 320 166 320.45 166 321C166 321.55 166.423 322 166.941 322C167.459 322 168.16 321.55 168.5 321ZM173 321C173 320.45 172.55 320 172 320C171.45 320 171 320.45 171 321C171 321.55 171.45 322 172 322C172.55 322 173 321.55 173 321ZM151 319.5C151 318.675 150.55 318 150 318C149.45 318 149 318.675 149 319.5C149 320.325 149.45 321 150 321C150.55 321 151 320.325 151 319.5ZM155 320C155 319.45 154.55 319 154 319C153.45 319 153 319.45 153 320C153 320.55 153.45 321 154 321C154.55 321 155 320.55 155 320ZM160 320C160 319.45 159.577 319 159.059 319C158.541 319 157.84 319.45 157.5 320C157.16 320.55 157.583 321 158.441 321C159.298 321 160 320.55 160 320ZM146.5 319C146.84 318.45 146.417 318 145.559 318C144.702 318 144 318.45 144 319C144 319.55 144.423 320 144.941 320C145.459 320 146.16 319.55 146.5 319ZM115.808 316.925C115.611 316.334 115.022 315.85 114.5 315.85C113.978 315.85 113.389 316.334 113.192 316.925C112.995 317.516 113.583 318 114.5 318C115.417 318 116.005 317.516 115.808 316.925ZM120 317C120 316.45 119.55 316 119 316C118.45 316 118 316.45 118 317C118 317.55 118.45 318 119 318C119.55 318 120 317.55 120 317ZM102 315.5C102 314.675 101.55 314 101 314C100.45 314 100 314.675 100 315.5C100 316.325 100.45 317 101 317C101.55 317 102 316.325 102 315.5ZM107 316C107 315.45 106.577 315 106.059 315C105.541 315 104.84 315.45 104.5 316C104.16 316.55 104.583 317 105.441 317C106.298 317 107 316.55 107 316ZM111 316C111 315.45 110.55 315 110 315C109.45 315 109 315.45 109 316C109 316.55 109.45 317 110 317C110.55 317 111 316.55 111 316ZM88.6042 313.271C87.5876 312.254 86.7489 313.785 87.5829 315.134C88.213 316.154 88.4485 316.154 88.7873 315.138C89.0188 314.443 88.9365 313.603 88.6042 313.271V313.271ZM93 315C93 314.45 92.55 314 92 314C91.45 314 91 314.45 91 315C91 315.55 91.45 316 92 316C92.55 316 93 315.55 93 315ZM98 315C98 314.45 97.55 314 97 314C96.45 314 96 314.45 96 315C96 315.55 96.45 316 97 316C97.55 316 98 315.55 98 315ZM85 314C85 313.45 84.325 313 83.5 313C82.675 313 82 313.45 82 314C82 314.55 82.675 315 83.5 315C84.325 315 85 314.55 85 314ZM122 314C122 313.45 121.55 313 121 313C120.45 313 120 313.45 120 314C120 314.55 120.45 315 121 315C121.55 315 122 314.55 122 314ZM118 313C118 312.45 117.55 312 117 312C116.45 312 116 312.45 116 313C116 313.55 116.45 314 117 314C117.55 314 118 313.55 118 313ZM143 312.441C143 311.584 142.55 311.16 142 311.5C141.45 311.84 141 312.541 141 313.059C141 313.577 141.45 314 142 314C142.55 314 143 313.298 143 312.441ZM114 311C114 310.45 113.55 310 113 310C112.45 310 112 310.45 112 311C112 311.55 112.45 312 113 312C113.55 312 114 311.55 114 311ZM147.5 311C147.16 310.45 146.459 310 145.941 310C145.423 310 145 310.45 145 311C145 311.55 145.702 312 146.559 312C147.416 312 147.84 311.55 147.5 311ZM109.457 310.069C109.774 309.557 109.575 308.856 109.016 308.51C108.457 308.165 108 308.583 108 309.441C108 311.198 108.6 311.456 109.457 310.069V310.069ZM151.447 308.915C151.125 308.394 150.436 308.231 149.915 308.553C149.394 308.875 149.231 309.564 149.553 310.085C149.875 310.606 150.564 310.769 151.085 310.447C151.606 310.125 151.769 309.436 151.447 308.915ZM142.075 308.725C141.951 307.529 140.58 307.761 140.15 309.05C139.93 309.71 140.29 310.07 140.95 309.85C141.61 309.63 142.116 309.124 142.075 308.725ZM106 308C106 307.45 105.577 307 105.059 307C104.541 307 103.84 307.45 103.5 308C103.16 308.55 103.583 309 104.441 309C105.298 309 106 308.55 106 308ZM156 308C156 307.45 155.298 307 154.441 307C153.584 307 153.16 307.45 153.5 308C153.84 308.55 154.541 309 155.059 309C155.577 309 156 308.55 156 308ZM101.447 305.915C101.125 305.394 100.436 305.231 99.9146 305.553C99.3936 305.875 99.2308 306.564 99.5528 307.085C99.8748 307.606 100.564 307.769 101.085 307.447C101.606 307.125 101.769 306.436 101.447 305.915ZM145.75 305.417C144.797 304.464 142.886 306.007 143.597 307.156C144.019 307.839 144.578 307.822 145.296 307.104C145.885 306.515 146.089 305.756 145.75 305.417V305.417ZM160 305.941C160 305.423 159.55 305 159 305C158.45 305 158 305.702 158 306.559C158 307.416 158.45 307.84 159 307.5C159.55 307.16 160 306.459 160 305.941ZM97 305C97 304.45 96.55 304 96 304C95.45 304 95 304.45 95 305C95 305.55 95.45 306 96 306C96.55 306 97 305.55 97 305ZM164 305C164 304.45 163.55 304 163 304C162.45 304 162 304.45 162 305C162 305.55 162.45 306 163 306C163.55 306 164 305.55 164 305ZM149.104 302.704C147.82 301.42 146.519 302.412 147.469 303.95C147.837 304.545 148.596 304.749 149.156 304.403C149.839 303.981 149.822 303.422 149.104 302.704H149.104ZM168 302.941C168 302.423 167.55 302 167 302C166.45 302 166 302.702 166 303.559C166 304.416 166.45 304.84 167 304.5C167.55 304.16 168 303.459 168 302.941ZM93 303C93 302.45 92.55 302 92 302C91.45 302 91 302.45 91 303C91 303.55 91.45 304 92 304C92.55 304 93 303.55 93 303ZM89 302.059C89 301.541 88.55 300.84 88 300.5C87.45 300.16 87 300.583 87 301.441C87 302.298 87.45 303 88 303C88.55 303 89 302.577 89 302.059ZM137.596 299.052C138.465 296.88 140.712 293.932 142.589 292.5C146.618 289.427 149 285.227 149 281.198C149 277.274 145.222 271.883 140.98 269.752C134.158 266.324 122.456 268.396 117.559 273.899C115.624 276.073 115.627 276.088 118.67 279.131L121.721 282.183L125.895 280.053C129.542 278.193 130.412 278.088 132.785 279.221C137.171 281.317 136.806 284.384 131.607 289.115C126.496 293.767 124.069 299.174 126.032 301.539C126.759 302.414 129.004 303 131.631 303C135.804 303 136.093 302.809 137.596 299.052V299.052ZM172 302C172 301.45 171.55 301 171 301C170.45 301 170 301.45 170 302C170 302.55 170.45 303 171 303C171.55 303 172 302.55 172 302ZM152.447 299.915C152.125 299.394 151.436 299.231 150.915 299.553C150.394 299.875 150.231 300.564 150.553 301.085C150.875 301.606 151.564 301.769 152.085 301.447C152.606 301.125 152.769 300.436 152.447 299.915ZM176.104 299.704C174.82 298.42 173.519 299.412 174.469 300.95C174.837 301.545 175.596 301.749 176.156 301.403C176.839 300.981 176.822 300.422 176.104 299.704H176.104ZM85 300C85 299.45 84.55 299 84 299C83.45 299 83 299.45 83 300C83 300.55 83.45 301 84 301C84.55 301 85 300.55 85 300ZM80.4573 299.069C80.7737 298.557 80.5753 297.856 80.0163 297.51C79.4573 297.165 79 297.583 79 298.441C79 300.197 79.6001 300.456 80.4573 299.069V299.069ZM181 299C181 298.45 180.298 298 179.441 298C178.584 298 178.16 298.45 178.5 299C178.84 299.55 179.541 300 180.059 300C180.577 300 181 299.55 181 299ZM156 297.441C156 296.583 155.55 296.16 155 296.5C154.45 296.84 154 297.541 154 298.059C154 298.577 154.45 299 155 299C155.55 299 156 298.298 156 297.441ZM160 295C160 294.45 159.325 294 158.5 294C157.675 294 157 294.45 157 295C157 295.55 157.675 296 158.5 296C159.325 296 160 295.55 160 295ZM163.15 292.5C163.15 291.977 162.666 291.389 162.075 291.192C161.484 290.995 161 291.583 161 292.5C161 293.417 161.484 294.005 162.075 293.808C162.666 293.611 163.15 293.022 163.15 292.5ZM166.447 288.915C166.125 288.394 165.436 288.231 164.915 288.553C164.394 288.875 164.231 289.564 164.553 290.085C164.875 290.606 165.564 290.769 166.085 290.447C166.606 290.125 166.769 289.436 166.447 288.915ZM170 287C170 286.45 169.55 286 169 286C168.45 286 168 286.45 168 287C168 287.55 168.45 288 169 288C169.55 288 170 287.55 170 287ZM174 284C174 283.45 173.325 283 172.5 283C171.675 283 171 283.45 171 284C171 284.55 171.675 285 172.5 285C173.325 285 174 284.55 174 284ZM177 280.941C177 280.423 176.55 280 176 280C175.45 280 175 280.702 175 281.559C175 282.416 175.45 282.84 176 282.5C176.55 282.16 177 281.458 177 280.941ZM180.447 277.915C180.125 277.394 179.436 277.231 178.915 277.553C178.394 277.875 178.231 278.564 178.553 279.085C178.875 279.606 179.564 279.769 180.085 279.447C180.606 279.125 180.769 278.436 180.447 277.915ZM217.138 254.65C229.381 250.939 242.404 241.28 248.98 231.031C259.616 214.456 260.271 192.653 250.676 174.571C246.414 166.537 236.888 157.24 228.291 152.722C211.713 144.011 194.34 143.79 177.432 152.077C149.701 165.666 138.681 199.984 153.262 227.341C163.31 246.192 184.054 257.84 205.138 256.469C209.338 256.195 214.738 255.377 217.138 254.65V254.65ZM194.763 251.956C169.277 247.725 151.054 226.693 151.012 201.46C150.989 188.009 155.579 176.438 164.752 166.821C174.364 156.744 184.393 151.768 197.723 150.462C219.689 148.31 241.547 161.909 250.057 183.021C253.162 190.723 253.897 206.402 251.535 214.528C246.409 232.16 232.98 245.689 216 250.324C208.755 252.302 200.615 252.928 194.763 251.956V251.956ZM202.25 225.888C207.884 219.907 204.468 208.939 196.5 207.425C192.102 206.59 186.779 210.447 185.556 215.356C184.085 221.261 186.499 227.166 191 228.669C195.66 230.226 198.923 229.419 202.25 225.888V225.888ZM192.607 226.418C192.273 225.548 192 221.985 192 218.5C192 210.947 192.615 209 195 209C197.385 209 198 210.947 198 218.5C198 226.053 197.385 228 195 228C194.018 228 192.941 227.288 192.607 226.418V226.418ZM183 225.345C183 221.816 182.934 221.749 181.098 223.411C179.818 224.57 177.938 225.029 175.348 224.816L171.5 224.5L175 222.633C180.323 219.793 183.002 216.923 182.985 214.076C182.964 210.618 182.017 209.337 178.49 207.996C172.802 205.834 165.632 209.168 167.94 212.902C169.165 214.885 172.46 213.762 172.82 211.24C173.237 208.316 175.799 208.35 176.536 211.289C177.386 214.674 175.486 218.69 170.992 223.008C168.796 225.117 167 227.328 167 227.922C167 228.603 169.946 229 175 229H183V225.345ZM221.97 225.25C221.945 222.217 221.744 221.835 220.92 223.25C220.185 224.512 218.628 225 215.337 225H210.774L215.611 221.75C218.271 219.962 221.107 217.314 221.914 215.865C223.224 213.513 223.201 212.955 221.698 210.662C218.524 205.817 207.5 206.468 207.5 211.5C207.5 214.597 210.825 214.591 212.003 211.492C213.178 208.401 215.352 208.646 215.832 211.924C216.314 215.216 214.351 219.268 210.433 223.065C205.198 228.139 205.788 229 214.5 229H222L221.97 225.25H221.97ZM234.75 227.92C233.266 227.056 233 225.364 233 216.795C233 207.231 232.906 206.775 231.248 208.275C230.285 209.147 228.147 210.396 226.498 211.05C224.849 211.703 224.062 212.447 224.75 212.703C225.594 213.016 226 215.548 226 220.5C226 225.431 225.591 227.999 224.75 228.338C224.062 228.615 226.425 228.864 230 228.891C234.876 228.927 236.063 228.685 234.75 227.92V227.92ZM194.25 201.338C193.562 201.06 193 199.746 193 198.417C193 196.39 193.492 196 196.045 196C197.946 196 200.014 195.077 201.545 193.545C207.589 187.502 201.888 175.623 195.026 179.963C194.078 180.562 193.315 180.51 192.886 179.815C192.469 179.141 190.817 178.999 188.479 179.438C185.699 179.96 185.029 180.429 185.87 181.27C187.495 182.895 187.389 200.676 185.75 201.338C185.062 201.615 186.975 201.842 190 201.842C193.025 201.842 194.938 201.615 194.25 201.338V201.338ZM193.667 194.333C192.585 193.252 192.906 183.176 194.044 182.473C196.035 181.242 198 184.197 198 188.422C198 193.344 195.749 196.415 193.667 194.333ZM168.04 194.548C166.045 192.144 167.723 189 171 189C174.277 189 175.955 192.145 173.96 194.548C172.928 195.791 173.658 196 179.033 196C184.916 196 185.216 195.89 183.809 194.25C182.983 193.287 180.782 188.32 178.917 183.211C174.435 170.934 172.978 170.974 168.389 183.5C166.576 188.45 164.618 193.287 164.038 194.25C163.122 195.769 163.397 196 166.114 196C168.738 196 169.05 195.765 168.04 194.548V194.548ZM169.473 185.252C170.214 182.299 170.754 181.421 171.419 182.085C171.649 182.316 172.148 183.741 172.527 185.252C173.124 187.63 172.919 188 171 188C169.081 188 168.876 187.63 169.473 185.252V185.252ZM214.25 195.338C213.449 195.014 213 192.719 213 188.942V183.05L215.985 183.647C218.193 184.088 219.131 183.823 219.589 182.628C220.782 179.521 222 182.165 222 187.859C222 191.017 221.46 194.14 220.8 194.8C219.867 195.733 221.867 196 229.8 196C235.933 196 240 195.601 240 195C240 194.45 239.55 194 239 194C238.393 194 238 189.628 238 182.883C238 171.843 237.985 171.771 235.75 172.37C234.513 172.701 232.657 172.979 231.628 172.986C230.137 172.997 229.992 173.285 230.916 174.399C231.666 175.302 231.975 179.114 231.789 185.149C231.557 192.666 231.206 194.5 230 194.5C228.822 194.5 228.438 192.849 228.209 186.801L227.918 179.103L221.627 179.389C218.167 179.546 214.849 179.976 214.253 180.343C213.658 180.711 212.998 180.493 212.786 179.857C212.526 179.079 211.151 178.937 208.57 179.421C205.722 179.955 205.029 180.429 205.87 181.27C207.375 182.775 207.321 193.279 205.8 194.8C204.867 195.733 205.811 195.982 210.05 195.921C213.048 195.878 214.938 195.615 214.25 195.338H214.25ZM227.808 175.336C228.128 173.089 225.023 171.25 223.009 172.494C221.85 173.211 221.658 176.325 222.709 177.376C224.151 178.818 227.503 177.477 227.808 175.336ZM103.947 224.451C113.451 222.211 122.629 217.275 129.892 210.5C142.282 198.94 147.909 186.848 148.736 170C149.582 152.774 144.8 139.433 133.363 127.111C101.58 92.8696 45.5607 107.389 33.4804 153C31.3493 161.046 31.5992 174.082 34.0558 183.02C39.4947 202.809 56.7875 219.607 76.6783 224.424C84.445 226.304 96.034 226.316 103.947 224.451V224.451ZM79.0564 219.91C65.9982 217.349 49.4853 205.045 43.1956 193.189C33.7999 175.479 34.4218 154.413 44.8111 138.458C63.9208 109.113 102.825 104.381 127.8 128.363C139.065 139.181 144.362 151.76 144.28 167.5C144.201 182.57 139.404 194.058 128.647 204.94C115.892 217.842 97.2352 223.474 79.0564 219.91V219.91ZM102 208.46C102 207.612 99.975 198.856 97.5 189C95.025 179.144 93 170.65 93 170.123C93 169.597 100.762 166.593 110.25 163.448C119.738 160.303 127.795 157.566 128.156 157.364C129.181 156.792 127.897 153 126.679 153C126.08 153 109.033 158.497 88.7964 165.216C54.735 176.524 52.0484 177.582 52.6253 179.466C52.968 180.585 53.3988 181.669 53.5826 181.875C53.7663 182.081 61.4242 179.707 70.6 176.6C79.7758 173.492 87.4186 171.085 87.584 171.251C87.7493 171.416 85.8968 179.415 83.4671 189.026C81.0375 198.637 79.0385 207.287 79.0248 208.25C79.0026 209.817 80.2048 210 90.5 210C100.189 210 102 209.757 102 208.46V208.46ZM56.6384 164.5C57.0261 163.49 58.6127 163 61.5 163C64.3873 163 65.9739 163.49 66.3616 164.5C66.7257 165.449 68.2596 166 70.536 166C74.8615 166 74.9324 166.392 67.9147 151.514C65.187 145.731 62.357 141 61.626 141C60.5901 141 49 163.519 49 165.532C49 166.811 56.1207 165.849 56.6384 164.5ZM60.393 156.418C60.7269 155.548 61.0069 154.536 61.0153 154.168C61.0358 153.274 62.9651 156.293 62.9847 157.25C62.9931 157.662 62.2769 158 61.393 158C60.3385 158 59.9947 157.456 60.393 156.418ZM119.109 149.114C121.563 146.083 121.503 143.503 118.919 140.919C117.01 139.01 116.969 138.692 118.419 137.09C120.575 134.707 120.405 131.405 118 129C116.381 127.381 114.667 127 109 127H102V139.609V152.219L109.609 151.834C116.117 151.506 117.491 151.112 119.109 149.114V149.114ZM109 144.406C109 142.667 109.554 142 111 142C112.292 142 113 142.667 113 143.883C113 144.926 112.107 146 111 146.29C109.409 146.706 109 146.32 109 144.406ZM109 134.5C109 132.518 109.439 131.938 110.75 132.19C111.712 132.376 112.5 133.415 112.5 134.5C112.5 135.585 111.712 136.624 110.75 136.81C109.439 137.062 109 136.482 109 134.5ZM326.947 224.451C337.794 221.894 345.638 217.374 354.608 208.511C366.67 196.593 372.012 183.79 371.988 166.856C371.956 144.491 359.467 124.244 339.705 114.519C322.586 106.096 304.849 106.101 287.09 114.534C281.393 117.24 277.829 119.908 272.054 125.79C260.242 137.823 255 150.489 255 167C255 184.049 260.16 196.362 272.411 208.543C281.192 217.274 289.034 221.849 299.601 224.406C307.441 226.303 319.009 226.322 326.947 224.451V224.451ZM302.056 219.91C293.989 218.328 283.294 212.448 276.345 205.775C265.116 194.993 259.639 182.28 259.639 167C259.639 152.626 264.008 141.433 273.723 130.921C284.221 119.561 295.459 114.177 310.5 113.3C341.411 111.497 367.389 136.019 367.389 167C367.389 201.075 335.93 226.552 302.056 219.91ZM281.589 177.827L283.23 174.654L285.093 177.077C286.117 178.41 286.966 179.838 286.978 180.25C287.004 181.145 295 181.276 295 180.381C295 180.04 293.411 177.146 291.469 173.949L287.938 168.136L291.469 162.616C293.411 159.58 295 156.849 295 156.548C295 156.247 293.252 156 291.115 156C288.008 156 286.88 156.535 285.479 158.673L283.727 161.346L281.78 158.673C280.234 156.551 279.014 156 275.86 156H271.887L274.504 160.25C279.694 168.676 279.673 168.413 275.653 174.468C273.644 177.494 272 180.201 272 180.485C272 180.768 273.788 181 275.974 181C279.427 181 280.164 180.584 281.589 177.827V177.827ZM350.003 175.25C350.006 170.214 350.502 168.755 354 163.5C356.197 160.2 357.995 157.162 357.997 156.75C357.999 156.338 356.538 155.996 354.75 155.991C352.31 155.984 350.852 156.77 348.899 159.147L346.297 162.312L344.433 159.156C342.859 156.491 341.975 156 338.749 156C335.104 156 334.984 156.103 336.113 158.25C336.764 159.487 338.579 162.381 340.148 164.68C342.512 168.145 343 169.9 343 174.93V181H346.5H350L350.003 175.25H350.003ZM315 178C315 176.19 315.667 176 322 176C328.8 176 329 175.929 329 173.5C329 171.071 328.8 171 322 171C315.2 171 315 170.929 315 168.5C315 167.125 314.764 166 314.475 166C314.186 166 310.712 167.631 306.754 169.624L299.558 173.248L306.029 176.575C313.62 180.479 315 180.698 315 178ZM324.481 165.785C328.066 164.017 331 162.314 331 162C331 161.463 318.518 155 317.481 155C317.216 155 317 155.9 317 157C317 158.81 316.333 159 310 159H303V162V165H310C316.333 165 317 165.19 317 167C317 168.1 317.216 169 317.481 169C317.746 169 320.896 167.553 324.481 165.785ZM222.5 139.873C231.714 136.849 243.281 128.899 249.298 121.456C277.336 86.7694 258.878 35.6051 215 26.3863C177.831 18.577 142.782 49.5102 145.285 87.9158C146.265 102.957 151.934 115.162 163.037 126.134C170.675 133.681 180.662 139.172 191 141.507C199.942 143.527 213.515 142.823 222.5 139.873ZM190.634 136.414C187.408 135.633 182.008 133.546 178.634 131.777C170.574 127.551 159.129 116.16 155.761 109.013L153.175 103.525L158.275 101.623C167.71 98.1032 176.39 86.8573 178.437 75.5C180.221 65.6008 186.353 57.1416 194.493 53.3513C209.599 46.3166 225.798 56.5829 229.87 75.7715C232.371 87.5602 239.718 97.0341 249.506 101.091L254.935 103.341L251.718 109.421C247.593 117.213 237.207 127.597 229.407 131.725C218.087 137.716 203.369 139.496 190.634 136.414V136.414ZM180.07 97.4162C180.999 96.2962 181.087 95.3618 180.371 94.2257C178.905 91.9015 177.455 91.6878 175.618 93.5248C174.394 94.7489 174.254 95.6053 175.037 97.0695C176.291 99.4119 178.298 99.5503 180.07 97.4162V97.4162ZM187.804 95.8692C188.152 92.8794 185.579 91.2744 183.373 93.1052C181.672 94.5173 181.62 96.2199 183.229 97.8292C185.145 99.745 187.469 98.7493 187.804 95.8692ZM195.376 96.7688C196.768 94.5585 194.173 91.6127 191.678 92.5702C190.008 93.2109 189.365 97.0313 190.701 98.3679C191.808 99.4746 194.184 98.6619 195.376 96.7688V96.7688ZM202.963 97.0695C203.743 95.6122 203.611 94.7541 202.427 93.5695C201.563 92.7063 200.696 92 200.5 92C200.304 92 199.437 92.7063 198.573 93.5695C196.764 95.3789 198.049 99 200.5 99C201.286 99 202.395 98.1313 202.963 97.0695V97.0695ZM210.804 95.8692C211.152 92.8794 208.579 91.2744 206.373 93.1052C204.672 94.5173 204.62 96.2199 206.229 97.8292C208.145 99.745 210.469 98.7493 210.804 95.8692ZM217.8 97.8C219.551 96.0486 219.27 94.2149 217.069 93.0372C214.325 91.5681 211.568 94.3245 213.037 97.0695C214.215 99.2701 216.049 99.5514 217.8 97.8ZM225.804 95.8692C226.152 92.8794 223.579 91.2744 221.373 93.1052C219.672 94.5173 219.62 96.2199 221.229 97.8292C223.145 99.745 225.469 98.7493 225.804 95.8692ZM232.418 98.393C234.364 97.6462 234.483 94.6454 232.627 93.1052C230.665 91.4771 228 92.8222 228 95.4403C228 98.8077 229.217 99.6213 232.418 98.393V98.393ZM199.257 78.8702C201.587 75.7347 200.941 72.6624 197.473 70.3904C191.294 66.342 184.806 74.8063 190.061 80.0606C192.764 82.7639 196.746 82.2485 199.257 78.8702V78.8702ZM219 80C221.482 77.5176 221.544 74.8939 219.19 71.9858C215.303 67.186 207.066 70.9988 208.493 76.9368C209.715 82.0186 215.341 83.6589 219 80ZM151.066 96.2982C149.594 90.9964 149.761 76.4826 151.363 70.5C155.277 55.8845 166.598 42.1326 180 35.7162C217.552 17.7368 260.235 45.8986 257.728 87C256.942 99.8829 256.242 100.695 249.076 97.0386C241.14 92.9902 235.877 85.5203 233.361 74.7339C230.65 63.1143 223.316 53.3598 214.318 49.4058C208.63 46.9066 198.526 47.1083 193.278 49.8259C183.397 54.9425 178.407 61.6791 175 74.5C171.261 88.5715 164.985 96.1313 154.31 99.4216C152.42 100.004 151.976 99.5767 151.066 96.2982V96.2982Z" fill="black"/>
</g>
<defs>
<clipPath id="clip0">
<rect width="400" height="400" fill="white"/>
</clipPath>
</defs>
</svg>
