<svg width="602" height="693" viewBox="0 0 602 693" fill="none" xmlns="http://www.w3.org/2000/svg">
<path d="M14 22L114.5 5L221 0L328 5L429 22L424 399L427 465L462 456.5L503 423L530 390V293.152L528.424 272.971L519 213L510 172L485.061 160.125L472 156.194L450.253 158.493L427 167L427.705 116.709L428.411 66.418L454 74H498L530 87L556 116L579 167L594 261L602 348L594 406.5L579 456.5L556 482L510 508L462 535L434 559L448 638L429 663L386 678.5L334 684L231.636 692.153C224.557 692.717 217.444 692.699 210.368 692.102L114.5 684L58.5 678.5L14 663L0 638L14 577L23 399L14 22Z" fill="#C4C4C4"/>
</svg>
